<svg width="250" height="250" viewBox="0 0 250 250" fill="none" xmlns="http://www.w3.org/2000/svg">
<g clip-path="url(#clip0_1_13)">
<rect width="250" height="250" rx="25" fill="#E4013B"/>
<g clip-path="url(#clip1_1_13)">
<g clip-path="url(#clip2_1_13)">
<path d="M41.0259 45.91C40.7622 45.9354 40.501 45.9823 40.2449 46.0501C37.4351 46.7771 26.198 49.317 16.6563 57.9927C-0.962003 74.0077 -8.9693 91.7177 -9.83781 107.098C-10.4412 117.784 -7.49575 127.403 -1.91796 134.245C-2.35933 140.392 -1.46795 147.059 1.80825 153.145C5.1491 159.35 11.4628 164.332 19.8963 167.225C20.5857 170.345 21.7242 174.078 24.786 177.732C28.1891 181.793 33.6234 185.191 41.5571 186.888C40.4748 190.124 39.3757 193.913 38.3005 197.645C31.0609 198.7 23.7049 198.42 18.0105 196.774C12.0386 195.049 8.27243 192.149 6.88015 188.371C6.53026 187.378 5.86463 186.526 4.98503 185.947C4.10543 185.367 3.06028 185.092 2.0094 185.163C1.25599 185.213 0.525012 185.44 -0.124627 185.825C-0.774267 186.21 -1.3244 186.742 -1.73068 187.379C-2.13697 188.015 -2.38804 188.738 -2.46367 189.49C-2.5393 190.241 -2.43737 191 -2.1661 191.704C0.603597 199.22 7.54538 203.79 15.3314 206.039C21.5205 207.828 28.4878 208.268 35.5039 207.668C35.2794 208.521 35.066 209.162 34.8392 210.038C33.2382 216.221 34.2755 221.881 36.9058 226.788C29.3742 229.78 23.6524 231.559 19.0521 232.079C13.5479 232.702 9.35075 231.893 3.63973 229.291C3.06236 229.021 2.43699 228.867 1.79985 228.84C1.1627 228.812 0.526447 228.912 -0.0720558 229.132C-0.670559 229.352 -1.21941 229.689 -1.68683 230.123C-2.15424 230.556 -2.53092 231.079 -2.79504 231.659C-3.05917 232.24 -3.20549 232.867 -3.22552 233.504C-3.24556 234.142 -3.13892 234.777 -2.91177 235.373C-2.68462 235.969 -2.34149 236.513 -1.90225 236.976C-1.46301 237.438 -0.936388 237.809 -0.352898 238.066C6.4331 241.157 12.9743 242.47 20.1379 241.66C26.7853 240.908 33.9452 238.471 43.1182 234.682C43.3146 234.865 43.4904 235.065 43.6913 235.243C47.4047 238.536 51.8657 241.476 56.695 244.358C47.1161 248.308 39.8498 253.538 34.7425 259.001C28.1095 266.097 24.7564 273.292 25.3766 279.849C25.4278 280.486 25.6049 281.106 25.8979 281.674C26.1908 282.241 26.5936 282.745 27.0829 283.156C27.5723 283.566 28.1383 283.876 28.7482 284.065C29.3581 284.255 29.9996 284.322 30.6355 284.262C31.2715 284.202 31.8891 284.016 32.4526 283.715C33.016 283.414 33.514 283.004 33.9177 282.509C34.3213 282.014 34.6225 281.444 34.8038 280.831C34.9851 280.219 35.0429 279.576 34.9738 278.941C34.7983 277.087 36.4614 271.284 41.7862 265.588C47.0043 260.006 55.4486 254.275 67.7616 250.687C68.7141 251.224 69.5668 251.718 70.5305 252.269C76.8728 255.892 82.6279 260.843 89.0389 264.995C95.45 269.148 102.883 272.518 111.751 271.679C120.619 270.84 127.288 266.136 132.807 260.855C138.326 255.575 143.051 249.633 148.601 244.884C149.437 244.169 149.953 243.534 150.781 242.834C163.644 244.028 173.131 248.051 179.333 252.578C185.631 257.175 188.353 262.562 188.528 264.417C188.58 265.054 188.757 265.674 189.05 266.242C189.343 266.809 189.745 267.313 190.235 267.724C190.724 268.134 191.29 268.443 191.9 268.633C192.51 268.823 193.151 268.89 193.787 268.83C194.423 268.77 195.041 268.584 195.604 268.283C196.168 267.982 196.666 267.572 197.069 267.077C197.473 266.582 197.774 266.012 197.956 265.399C198.137 264.787 198.195 264.144 198.126 263.509C197.505 256.952 192.863 250.513 185.017 244.787C178.814 240.26 169.81 236.909 159.275 234.863C163.613 231.027 168.661 227.164 171.772 223.128C171.968 222.873 171.976 222.537 172.165 222.278C181.731 224.235 189.512 225.517 196.111 225.015C203.299 224.468 209.479 221.952 215.565 217.643C216.089 217.281 216.537 216.818 216.882 216.282C217.227 215.745 217.462 215.145 217.573 214.517C217.684 213.89 217.67 213.246 217.531 212.623C217.392 212.001 217.13 211.413 216.762 210.892C216.394 210.371 215.926 209.929 215.385 209.59C214.845 209.252 214.243 209.024 213.613 208.92C212.984 208.816 212.341 208.837 211.72 208.984C211.099 209.13 210.514 209.398 209.998 209.773C204.876 213.399 200.905 214.98 195.381 215.401C190.903 215.742 184.05 214.562 176.453 213.135C178.033 207.892 178.429 202.39 175.741 196.711C175.262 195.698 174.902 195.251 174.433 194.272C181.488 193.556 188.37 192.062 194.154 189.125C201.38 185.456 207.341 179.665 208.653 171.763C208.761 171.137 208.744 170.496 208.603 169.876C208.462 169.256 208.2 168.67 207.832 168.152C207.464 167.634 206.997 167.194 206.458 166.857C205.919 166.52 205.318 166.293 204.691 166.189C204.064 166.085 203.423 166.106 202.804 166.251C202.185 166.396 201.601 166.661 201.085 167.033C200.57 167.404 200.132 167.874 199.799 168.415C199.465 168.956 199.242 169.558 199.142 170.186C198.483 174.158 195.327 177.712 189.785 180.527C184.4 183.261 177.002 184.861 169.55 185.136C167.956 182.027 166.423 179.255 164.881 176.462C172.008 173.764 176.867 169.489 179.791 164.943C182.482 160.757 183.351 156.671 183.617 153.111C193.583 147.501 199.037 139.56 200.056 131.66C201.123 123.387 198.694 115.851 196.281 110.542C198.49 101.919 196.95 91.7957 191.806 82.2287C184.538 68.7123 170.084 56.0301 148.203 49.1244C142.09 47.196 136.391 46.9896 131.839 47.2775C127.287 47.5653 123.524 48.3476 122.625 48.4327C121.666 48.5216 120.755 48.8958 120.011 49.507C119.266 50.1182 118.722 50.9384 118.448 51.8618C118.174 52.7853 118.183 53.7696 118.474 54.6879C118.765 55.6062 119.324 56.4163 120.079 57.0137C127.282 62.7209 134.992 70.5749 141.028 77.9443C143.916 81.4697 144.394 83.1859 146.281 86.1943C142.633 84.627 138.642 82.697 134.509 80.3009C125.132 74.8649 115.596 67.8616 111.127 63.241C110.51 62.6036 109.73 62.1487 108.871 61.9265C108.012 61.7043 107.109 61.7233 106.26 61.9815C105.411 62.2397 104.651 62.7271 104.061 63.3899C103.472 64.0528 103.077 64.8654 102.919 65.7384C101.256 74.9485 104.905 86.0118 110.802 96.595C116.7 107.178 125.057 117.114 135.145 122.112C139.019 124.033 146.251 127.068 154.611 128.971C154.033 134.041 154.904 138.379 155.754 141.354C152.771 143.076 148.77 146.008 147.003 151.609C145.848 150.581 144.676 149.64 143.475 148.804C131.858 140.708 118.341 140.335 99.4962 142.117C80.651 143.9 67.4439 146.801 57.5507 156.931C57.2179 157.272 56.929 157.678 56.6052 158.032C52.8752 153.327 48.2182 151.504 44.9396 150.569C45.0885 147.478 44.899 143.063 42.9479 138.209C52.1144 133.369 59.4021 127.234 63.0207 122.788C77.0423 105.57 79.5542 76.0962 65.3837 54.3955C64.9312 53.7007 64.3093 53.1326 63.5767 52.7445C62.844 52.3564 62.0246 52.1612 61.1957 52.1772C60.3667 52.1931 59.5555 52.4198 58.8384 52.8358C58.1212 53.2519 57.5217 53.8436 57.0963 54.5552C54.4776 58.9206 49.4342 66.7522 43.9573 73.8024C41.5378 76.9171 39.8523 77.7216 37.4364 80.1401C38.0649 77.4914 38.6457 74.8793 39.4815 72.0698C41.9895 63.6392 44.9832 55.5243 46.0842 52.4007C46.357 51.6278 46.431 50.7987 46.2993 49.9898C46.1676 49.1808 45.8345 48.418 45.3307 47.7715C44.8269 47.1251 44.1686 46.6157 43.4163 46.2904C42.664 45.9651 41.842 45.8343 41.0259 45.91ZM33.6837 58.661C32.4084 62.3405 31.506 64.6321 30.1214 69.2861C28.8095 73.6961 27.6022 78.2192 26.8187 82.3548C26.0351 86.4904 25.5248 90.0797 26.2205 93.6263C26.358 94.332 26.6496 94.9987 27.0745 95.5788C27.4993 96.1588 28.047 96.6379 28.6784 96.982C29.3097 97.326 30.0092 97.5264 30.727 97.5689C31.4447 97.6114 32.163 97.495 32.8306 97.2279C39.9652 94.3791 45.8366 87.309 51.6731 79.7959C55.3293 75.0893 57.6056 71.2873 60.3188 67.1296C67.3465 84.1115 64.8315 105.089 55.4399 116.621C53.0617 119.543 45.3674 126.289 36.6903 130.536C28.0132 134.783 18.7028 136.615 11.3099 132.833C9.92275 132.124 8.64549 131.137 7.44036 130.012C7.01942 129.121 6.33553 128.38 5.48082 127.89C1.72687 123.181 -0.567391 116.218 -0.083608 107.651C0.617942 95.2269 7.17206 79.8169 23.231 65.2193C26.682 62.0815 30.3531 60.1304 33.6837 58.661ZM133.65 57.0256C137.158 56.8905 141.073 56.9937 145.3 58.3255C165.119 64.5805 177.379 75.7625 183.311 86.7957C189.244 97.8288 188.709 108.369 184.023 114.416C179.113 120.755 170.883 121.857 161.76 120.578C152.637 119.299 143.436 115.469 139.425 113.481C132.16 109.881 124.43 101.253 119.219 91.903C116.292 86.6506 114.486 81.3937 113.392 76.6908C118.599 80.7787 123.295 84.9482 129.672 88.6448C134.661 91.5371 139.671 94.0883 144.262 95.936C148.853 97.7837 152.874 99.0652 156.926 98.861C157.635 98.8239 158.327 98.6306 158.953 98.2948C159.579 97.9591 160.123 97.4893 160.546 96.919C160.969 96.3486 161.261 95.6918 161.4 94.9956C161.54 94.2993 161.524 93.5808 161.354 92.8914C159.813 86.6289 154.935 79.7104 148.488 71.8393C144.221 66.6295 138.819 61.8799 133.65 57.0256ZM189.989 122.107C190.565 124.83 190.845 127.693 190.493 130.428C189.737 136.285 186.891 141.816 177.09 146.286L174.189 147.61L174.273 150.798C174.331 152.95 173.781 156.474 171.686 159.733C169.684 162.846 166.259 165.902 159.958 167.906C158.059 164.858 156.169 162.115 154.246 159.605C155.12 158.794 155.662 157.688 155.768 156.501C156.192 151.753 163.306 147.921 163.306 147.921L167.336 146.14L165.921 141.971C165.921 141.971 164.013 135.116 164.136 130.5C173.273 131.164 183.1 129.416 189.989 122.107ZM8.09532 142.035C16.6595 145.916 25.841 145.009 34.1101 142.146C35.5908 146.917 35.2091 153.465 35.2091 153.465L34.6876 157.949L39.1244 158.769C39.1244 158.769 47.7523 160.944 50.4134 166.05C50.4463 166.114 50.4806 166.177 50.5164 166.239C48.5152 169.581 46.6722 173.358 44.9199 177.653C37.8633 176.416 34.2391 174.007 32.1717 171.539C29.958 168.898 29.2242 165.888 28.7779 163.151L28.2627 160.004L25.1652 159.247C17.1878 157.3 12.8636 153.345 10.2926 148.569C9.20244 146.544 8.52947 144.309 8.09532 142.035ZM100.404 151.715C118.709 149.983 129.069 150.512 137.963 156.71C146.857 162.908 155.286 176.002 167.035 200.834C170.045 207.196 168.728 211.301 164.143 217.249C159.558 223.198 151.374 229.824 142.338 237.553C135.876 243.081 130.973 249.264 126.135 253.893C121.297 258.522 116.885 261.511 110.843 262.082C104.802 262.653 99.9078 260.546 94.2878 256.906C88.6678 253.266 82.6924 248.112 75.3079 243.893C64.9831 237.996 55.7021 233.021 50.0829 228.038C44.4638 223.054 42.4006 219.27 44.1647 212.456C51.049 185.861 56.8733 171.419 64.4474 163.664C72.0216 155.908 82.0985 153.446 100.404 151.715Z" fill="white"/>
</g>
</g>
</g>
<defs>
<clipPath id="clip0_1_13">
<rect width="250" height="250" rx="25" fill="white"/>
</clipPath>
<clipPath id="clip1_1_13">
<rect width="250" height="250" fill="white"/>
</clipPath>
<clipPath id="clip2_1_13">
<rect width="241" height="241" fill="white" transform="translate(-30 52.6943) rotate(-5.40339)"/>
</clipPath>
</defs>
</svg>
